<?xml version="1.0" encoding="UTF-8"?>
<svg id="Layer_2" data-name="Layer 2" xmlns="http://www.w3.org/2000/svg" viewBox="0 0 312.71 312.72">
  <defs>
    <style>
      .cls-1 {
        fill: #fff;
      }
    </style>
  </defs>
  <g id="Layer_3" data-name="Layer 3">
    <path class="cls-1" d="m299.36,133.05c8.55-8.55,13.35-20.15,13.35-32.24v-21.76c0-.58,0-1.18-.03-1.76-.21-10.18-2.36-19.88-6.08-28.75-4-9.57-9.83-18.17-17.05-25.38C275.25,8.85,255.48,0,233.66,0H79.05C35.39,0,0,35.4,0,79.05v154.61c0,43.66,35.39,79.06,79.05,79.06h154.61c21.82,0,41.59-8.86,55.89-23.16h0c7.23-7.22,13.05-15.83,17.05-25.39,3.72-8.88,5.87-18.57,6.08-28.76.02-.57.03-1.16.03-1.75v-21.76c0-12.09-4.8-23.69-13.35-32.24l-23.31-23.31,6.66-6.66,16.65-16.64Zm-31.04,135.29c-8.88,8.88-21.14,14.38-34.66,14.38H79.05c-27.09,0-49.05-21.97-49.05-49.05V79.05c0-27.08,21.96-49.05,49.05-49.05h154.61c13.52,0,25.78,5.5,34.66,14.39l-87.06,87.05v-41.16c0-23.37-18.94-42.31-42.31-42.31h-47.36c-23.37,0-42.32,18.94-42.32,42.32v45.49c0,19.65,15.93,35.57,35.58,35.57h66.41v51.09c0,6.79-5.52,12.31-12.32,12.31h-47.35c-6.8,0-12.32-5.52-12.32-12.31v-10.28c0-5.97-4.84-10.81-10.81-10.81h-19.19v21.09c0,23.37,18.94,42.31,42.31,42.31h47.36c23.37,0,42.32-18.94,42.32-42.32v-41.17l87.06,87.07h0Zm-117.06-178.04v51.06h-60.15c-6.54,0-11.84-5.3-11.84-11.84v-39.23c0-6.8,5.52-12.31,12.32-12.31h47.35c6.81,0,12.32,5.51,12.32,12.32Zm121.58,105.29c6.32,6.32,9.87,14.88,9.87,23.82v14.26c0,2.12-.13,4.19-.39,6.24l-83.54-83.55,83.54-83.52c.26,2.03.39,4.11.39,6.22v14.26c0,8.94-3.55,17.5-9.87,23.82l-39.22,39.22,39.22,39.23Z"/>
  </g>
</svg>